<svg xmlns="http://www.w3.org/2000/svg" xmlns:xlink="http://www.w3.org/1999/xlink" viewBox="0 0 1201 752"><path d="M 30.5 -0 L 30.5 481" fill="transparent" stroke="rgb(78,80,85)" stroke-miterlimit="10" stroke-dasharray=""></path><path d="M 57.5 -0 L 57.5 481" fill="transparent" stroke="rgb(78,80,85)" stroke-miterlimit="10" stroke-dasharray=""></path><path d="M 84.5 -0 L 84.5 481" fill="transparent" stroke="rgb(78,80,85)" stroke-miterlimit="10" stroke-dasharray=""></path><path d="M 111.5 -0 L 111.5 481" fill="transparent" stroke="rgb(78,80,85)" stroke-miterlimit="10" stroke-dasharray=""></path><path d="M 138.5 -0 L 138.5 481" fill="transparent" stroke="rgb(78,80,85)" stroke-miterlimit="10" stroke-dasharray=""></path><path d="M 165.5 -0 L 165.5 481" fill="transparent" stroke="rgb(78,80,85)" stroke-miterlimit="10" stroke-dasharray=""></path><path d="M 192.5 -0 L 192.5 481" fill="transparent" stroke="rgb(78,80,85)" stroke-miterlimit="10" stroke-dasharray=""></path><path d="M 219.5 -0 L 219.5 481" fill="transparent" stroke="rgb(78,80,85)" stroke-miterlimit="10" stroke-dasharray=""></path><path d="M 246.5 -0 L 246.5 481" fill="transparent" stroke="rgb(78,80,85)" stroke-miterlimit="10" stroke-dasharray=""></path><path d="M 273.5 -0 L 273.5 481" fill="transparent" stroke="rgb(78,80,85)" stroke-miterlimit="10" stroke-dasharray=""></path><path d="M 300.5 -0 L 300.5 481" fill="transparent" stroke="rgb(78,80,85)" stroke-miterlimit="10" stroke-dasharray=""></path><path d="M 327.5 -0 L 327.5 481" fill="transparent" stroke="rgb(78,80,85)" stroke-miterlimit="10" stroke-dasharray=""></path><path d="M 354.5 -0 L 354.5 481" fill="transparent" stroke="rgb(78,80,85)" stroke-miterlimit="10" stroke-dasharray=""></path><path d="M 381.5 -0 L 381.5 481" fill="transparent" stroke="rgb(78,80,85)" stroke-miterlimit="10" stroke-dasharray=""></path><path d="M 408.5 -0 L 408.5 481" fill="transparent" stroke="rgb(78,80,85)" stroke-miterlimit="10" stroke-dasharray=""></path><path d="M 435.5 -0 L 435.5 481" fill="transparent" stroke="rgb(78,80,85)" stroke-miterlimit="10" stroke-dasharray=""></path><path d="M 462.5 -0 L 462.5 481" fill="transparent" stroke="rgb(78,80,85)" stroke-miterlimit="10" stroke-dasharray=""></path><path d="M 489.5 -0 L 489.5 481" fill="transparent" stroke="rgb(78,80,85)" stroke-miterlimit="10" stroke-dasharray=""></path><path d="M 517.5 -0 L 517.5 481" fill="transparent" stroke="rgb(78,80,85)" stroke-miterlimit="10" stroke-dasharray=""></path><path d="M 547.5 -0 L 547.5 481" fill="transparent" stroke="rgb(78,80,85)" stroke-miterlimit="10" stroke-dasharray=""></path><path d="M 577.5 -0 L 577.5 481" fill="transparent" stroke="rgb(78,80,85)" stroke-miterlimit="10" stroke-dasharray=""></path><path d="M 607.5 -0 L 607.5 481" fill="transparent" stroke="rgb(78,80,85)" stroke-miterlimit="10" stroke-dasharray=""></path><path d="M 637.5 -0 L 637.5 481" fill="transparent" stroke="rgb(78,80,85)" stroke-miterlimit="10" stroke-dasharray=""></path><path d="M 667.5 -0 L 667.5 481" fill="transparent" stroke="rgb(78,80,85)" stroke-miterlimit="10" stroke-dasharray=""></path><path d="M 697.5 -0 L 697.5 481" fill="transparent" stroke="rgb(78,80,85)" stroke-miterlimit="10" stroke-dasharray=""></path><path d="M 727.5 -0 L 727.5 481" fill="transparent" stroke="rgb(78,80,85)" stroke-miterlimit="10" stroke-dasharray=""></path><path d="M 757.5 -0 L 757.5 481" fill="transparent" stroke="rgb(78,80,85)" stroke-miterlimit="10" stroke-dasharray=""></path><path d="M 787.5 -0 L 787.5 481" fill="transparent" stroke="rgb(78,80,85)" stroke-miterlimit="10" stroke-dasharray=""></path><path d="M 817.5 -0 L 817.5 481" fill="transparent" stroke="rgb(78,80,85)" stroke-miterlimit="10" stroke-dasharray=""></path><path d="M 847.5 -0 L 847.5 481" fill="transparent" stroke="rgb(78,80,85)" stroke-miterlimit="10" stroke-dasharray=""></path><path d="M 877.5 -0 L 877.5 481" fill="transparent" stroke="rgb(78,80,85)" stroke-miterlimit="10" stroke-dasharray=""></path><path d="M 907.5 -0 L 907.5 481" fill="transparent" stroke="rgb(78,80,85)" stroke-miterlimit="10" stroke-dasharray=""></path><path d="M 937.5 -0 L 937.5 481" fill="transparent" stroke="rgb(78,80,85)" stroke-miterlimit="10" stroke-dasharray=""></path><path d="M 967.5 -0 L 967.5 481" fill="transparent" stroke="rgb(78,80,85)" stroke-miterlimit="10" stroke-dasharray=""></path><path d="M 997.5 -0 L 997.5 481" fill="transparent" stroke="rgb(78,80,85)" stroke-miterlimit="10" stroke-dasharray=""></path><path d="M 1027.5 -0 L 1027.5 481" fill="transparent" stroke="rgb(78,80,85)" stroke-miterlimit="10" stroke-dasharray=""></path><path d="M 1057.5 -0 L 1057.5 481" fill="transparent" stroke="rgb(78,80,85)" stroke-miterlimit="10" stroke-dasharray=""></path><path d="M 1087.5 -0 L 1087.5 481" fill="transparent" stroke="rgb(78,80,85)" stroke-miterlimit="10" stroke-dasharray=""></path><path d="M 1117.5 -0 L 1117.5 481" fill="transparent" stroke="rgb(78,80,85)" stroke-miterlimit="10" stroke-dasharray=""></path><path d="M 1147.5 -0 L 1147.5 481" fill="transparent" stroke="rgb(78,80,85)" stroke-miterlimit="10" stroke-dasharray=""></path><path d="M 1177.5 -0 L 1177.5 481" fill="transparent" stroke="rgb(78,80,85)" stroke-miterlimit="10" stroke-dasharray=""></path><path d="M 12 454.5 L 1189 454.5" fill="transparent" stroke="rgb(78,80,85)" stroke-miterlimit="10" stroke-dasharray=""></path><path d="M 12 477.5 L 1189 477.5" fill="transparent" stroke="rgb(78,80,85)" stroke-miterlimit="10" stroke-dasharray=""></path><path d="M 12 500.5 L 1189 500.5" fill="transparent" stroke="rgb(78,80,85)" stroke-miterlimit="10" stroke-dasharray=""></path><path d="M 12 523.5 L 1189 523.5" fill="transparent" stroke="rgb(78,80,85)" stroke-miterlimit="10" stroke-dasharray=""></path><path d="M 12 546.5 L 1189 546.5" fill="transparent" stroke="rgb(78,80,85)" stroke-miterlimit="10" stroke-dasharray=""></path><path d="M 12 569.5 L 1189 569.5" fill="transparent" stroke="rgb(78,80,85)" stroke-miterlimit="10" stroke-dasharray=""></path><path d="M 12 592.5 L 1189 592.5" fill="transparent" stroke="rgb(78,80,85)" stroke-miterlimit="10" stroke-dasharray=""></path><path d="M 12 615.5 L 1189 615.5" fill="transparent" stroke="rgb(78,80,85)" stroke-miterlimit="10" stroke-dasharray=""></path><path d="M 12 638.5 L 1189 638.5" fill="transparent" stroke="rgb(78,80,85)" stroke-miterlimit="10" stroke-dasharray=""></path><path d="M 12 661.5 L 1189 661.5" fill="transparent" stroke="rgb(78,80,85)" stroke-miterlimit="10" stroke-dasharray=""></path><path d="M 12 684.5 L 1189 684.5" fill="transparent" stroke="rgb(78,80,85)" stroke-miterlimit="10" stroke-dasharray=""></path><path d="M 12 707.5 L 1189 707.5" fill="transparent" stroke="rgb(78,80,85)" stroke-miterlimit="10" stroke-dasharray=""></path><path d="M 12 730.5 L 1189 730.5" fill="transparent" stroke="rgb(78,80,85)" stroke-miterlimit="10" stroke-dasharray=""></path><path d="M 12 431.5 L 1189 431.5" fill="transparent" stroke="rgb(78,80,85)" stroke-miterlimit="10" stroke-dasharray=""></path><path d="M 12 409.5 L 1189 409.5" fill="transparent" stroke="rgb(78,80,85)" stroke-miterlimit="10" stroke-dasharray=""></path><path d="M 12 386.5 L 1189 386.5" fill="transparent" stroke="rgb(78,80,85)" stroke-miterlimit="10" stroke-dasharray=""></path><path d="M 12 363.5 L 1189 363.5" fill="transparent" stroke="rgb(78,80,85)" stroke-miterlimit="10" stroke-dasharray=""></path><path d="M 12 341.5 L 1189 341.5" fill="transparent" stroke="rgb(78,80,85)" stroke-miterlimit="10" stroke-dasharray=""></path><path d="M 12 318.5 L 1189 318.5" fill="transparent" stroke="rgb(78,80,85)" stroke-miterlimit="10" stroke-dasharray=""></path><path d="M 12 295.5 L 1189 295.5" fill="transparent" stroke="rgb(78,80,85)" stroke-miterlimit="10" stroke-dasharray=""></path><path d="M 12 273.5 L 1189 273.5" fill="transparent" stroke="rgb(78,80,85)" stroke-miterlimit="10" stroke-dasharray=""></path><path d="M 12 250.5 L 1189 250.5" fill="transparent" stroke="rgb(78,80,85)" stroke-miterlimit="10" stroke-dasharray=""></path><path d="M 12 227.5 L 1189 227.5" fill="transparent" stroke="rgb(78,80,85)" stroke-miterlimit="10" stroke-dasharray=""></path><path d="M 12 204.5 L 1189 204.5" fill="transparent" stroke="rgb(78,80,85)" stroke-miterlimit="10" stroke-dasharray=""></path><path d="M 12 182.5 L 1189 182.5" fill="transparent" stroke="rgb(78,80,85)" stroke-miterlimit="10" stroke-dasharray=""></path><path d="M 12 159.5 L 1189 159.5" fill="transparent" stroke="rgb(78,80,85)" stroke-miterlimit="10" stroke-dasharray=""></path><path d="M 12 136.5 L 1189 136.5" fill="transparent" stroke="rgb(78,80,85)" stroke-miterlimit="10" stroke-dasharray=""></path><path d="M 12 114.5 L 1189 114.5" fill="transparent" stroke="rgb(78,80,85)" stroke-miterlimit="10" stroke-dasharray=""></path><path d="M 12 91.5 L 1189 91.5" fill="transparent" stroke="rgb(78,80,85)" stroke-miterlimit="10" stroke-dasharray=""></path><path d="M 12 68.5 L 1189 68.5" fill="transparent" stroke="rgb(78,80,85)" stroke-miterlimit="10" stroke-dasharray=""></path><path d="M 12 46.5 L 1189 46.5" fill="transparent" stroke="rgb(78,80,85)" stroke-miterlimit="10" stroke-dasharray=""></path><path d="M 12 23.5 L 1189 23.5" fill="transparent" stroke="rgb(78,80,85)" stroke-miterlimit="10" stroke-dasharray=""></path><g><defs><radialGradient id="idss3738602571_74g600658636" cy="0.5" cx="0.5" r="0.5" gradientTransform="translate(0.5, 0.5) scale(1 1) translate(-0.5, -0.5)"><stop offset="0" stop-color="rgba(0,0,0,0)" stop-opacity="0"></stop><stop offset="1" stop-color="rgb(0,0,0)" stop-opacity="1"></stop></radialGradient></defs><path d="M 0 752 L 0 0 L 1201 0 L 1201 752 Z" fill="url(#idss3738602571_74g600658636)"></path></g></svg>